# xmcd
#
# Track frame offsets: 
#        150
#        17084
#        34224
#        54154
#        74021
#        96949
#        114418
#        129886
#        145454
#        162478
#        182476
#        202622
#
# Disc length: 3476 seconds
#
# Revision: 0
# Processed by: cddbd v1.5.2PL0 Copyright (c) Steve Scherf et al.
# Submitted via: ExactAudioCopy v1.3
#
DISCID=a00d920c
DTITLE=Hello Seahorse! - Arunima
DYEAR=2012
DGENRE=Indie
TTITLE0=Buen Viaje
TTITLE1=No Es Que No Te Quiera
TTITLE2=La Flotadera
TTITLE3=Tristes
TTITLE4=Frontera (Sonic Ranch)
TTITLE5=Arunima
TTITLE6=Para Mi
TTITLE7=No Te Vayas al Bosque
TTITLE8=Una y Otra Vez
TTITLE9=El Artista
TTITLE10=Te Regalo Todo
TTITLE11=Al Fuego
EXTD=
EXTT0=
EXTT1=
EXTT2=
EXTT3=
EXTT4=
EXTT5=
EXTT6=
EXTT7=
EXTT8=
EXTT9=
EXTT10=
EXTT11=
PLAYORDER=
